:SAMPLES-PER-SECOND 30
:FULLY-SPECIFIED
:DEGREES
81
root  74.027 40.0817 -2.44983 -178.954 -83.0842 177.659
RightUpLeg  0.887348 -8.88878 -3.19777
RightLeg  10.8599 1.04021 3.13943
RightFoot  -8.03467 0.0394684 -3.24665
RightToes  5.82063e-011 0 -3.6325e-017
Spine  0.307524 -0.499777 8.38992
Spine1  14.4684 0.125113 -1.98348
HEad  -15.9056 7.89236 -9.71392
LeftShoulder1  9.43543 -12.7677 -50.6148
LeftArm  -17.5771 18.2501 -28.4556
LeftForeArm  17.1592 -9.70462 -3.14698
LeftHand  -0.244104 0.0205437 5.32207
RightShoulder  7.26971 10.604 45.0059
RightArm  -6.21389 -20.2401 31.0837
RightForeArm  7.64468 9.5787 7.04395
RightHand  -0.546769 0.287511 -11.2484
LeftUpLeg  2.08563 10.4479 7.06002
LeftLeg  9.47636 8.87922 -0.683446
LeftFoot  -7.84797 0.235275 -6.16615
LeftToes  4.36525e-011 -9.98543e-011 1.0027e-011
82
root  73.9125 40.0418 -2.59471 177.535 -82.7048 -178.741
RightUpLeg  0.694459 -9.07656 -2.67338
RightLeg  11.395 1.21592 3.50138
RightFoot  -7.79566 0.0651142 -3.80245
RightToes  5.82063e-011 0 -3.6325e-017
Spine  1.17782 -0.685236 8.81635
Spine1  13.9286 -0.175202 -1.34038
HEad  -17.0629 8.63797 -9.84528
LeftShoulder1  9.32331 -12.6311 -50.4377
LeftArm  -17.7645 18.3334 -27.9938
LeftForeArm  17.4541 -10.5606 -3.12264
LeftHand  -0.244104 0.0205437 5.32207
RightShoulder  7.28498 10.6575 44.9265
RightArm  -6.47136 -18.2787 29.6863
RightForeArm  7.24629 8.54942 7.07204
RightHand  -0.636459 0.514417 -12.5878
LeftUpLeg  1.12442 12.1105 7.45328
LeftLeg  11.63 7.77565 0.508909
LeftFoot  -8.20321 0.22923 -6.56439
LeftToes  4.36525e-011 -9.98543e-011 1.0027e-011
83
root  73.797 40.0471 -2.72511 175.63 -82.173 -176.671
RightUpLeg  0.530832 -9.19882 -2.30666
RightLeg  11.6551 1.51361 3.81833
RightFoot  -7.39466 0.0941477 -4.17924
RightToes  5.82063e-011 0 -3.6325e-017
Spine  1.61458 -0.718555 9.15503
Spine1  13.8992 -0.266082 -0.975431
HEad  -18.3645 9.19403 -9.69451
LeftShoulder1  9.20184 -12.5295 -50.0989
LeftArm  -18.3831 18.133 -27.7009
LeftForeArm  17.7187 -11.7122 -2.99887
LeftHand  -0.244104 0.0205437 5.32207
RightShoulder  7.40568 10.8279 45.1367
RightArm  -6.74025 -15.8056 27.9667
RightForeArm  5.82675 7.82437 7.09352
RightHand  -0.769552 0.969308 -14.128
LeftUpLeg  0.645341 12.79 7.76146
LeftLeg  12.662 7.70326 1.15736
LeftFoot  -7.99592 0.244189 -6.71873
LeftToes  4.36525e-011 -9.98543e-011 1.0027e-011
84
root  73.6684 40.0962 -2.84147 175.797 -81.4803 -176.496
RightUpLeg  0.256976 -9.16123 -2.11857
RightLeg  11.6715 1.9796 4.00802
RightFoot  -6.83495 0.123211 -4.30448
RightToes  5.82063e-011 0 -3.6325e-017
Spine  1.65232 -0.561391 9.12295
Spine1  14.0696 -0.222197 -0.548129
HEad  -19.6857 9.54315 -9.66682
LeftShoulder1  9.13101 -12.4795 -49.8704
LeftArm  -19.0306 17.8671 -27.4258
LeftForeArm  17.7054 -13.1056 -2.92133
LeftHand  -0.244104 0.0205437 5.32207
RightShoulder  7.44917 10.9536 45.0018
RightArm  -6.93716 -13.165 26.6326
RightForeArm  4.41085 7.4345 7.15073
RightHand  -0.952128 1.78779 -15.5137
LeftUpLeg  0.729413 12.6833 7.96513
LeftLeg  12.3888 8.29909 1.17561
LeftFoot  -7.46616 0.273329 -6.75305
LeftToes  4.36525e-011 -9.98543e-011 1.0027e-011
85
root  73.5314 40.172 -2.93607 177.277 -80.8989 -177.422
RightUpLeg  -0.184151 -8.95599 -2.06342
RightLeg  11.5094 2.32048 4.06981
RightFoot  -6.13893 0.147851 -4.16614
RightToes  5.82063e-011 0 -3.6325e-017
Spine  1.78306 -0.354034 8.74719
Spine1  13.5988 -0.169718 -0.00191834
HEad  -20.5602 9.73788 -9.69191
LeftShoulder1  9.12162 -12.4871 -49.7958
LeftArm  -19.2544 17.8605 -27.0129
LeftForeArm  17.6906 -14.8594 -3.00067
LeftHand  -0.244104 0.0205437 5.32207
RightShoulder  7.29517 10.8618 44.323
RightArm  -6.83184 -10.9491 26.0007
RightForeArm  3.39366 7.91204 7.28221
RightHand  -1.09768 2.47095 -16.3386
LeftUpLeg  1.04506 11.9779 8.03209
LeftLeg  11.2466 9.11812 0.739338
LeftFoot  -6.74591 0.320176 -6.96183
LeftToes  4.36525e-011 -9.98543e-011 1.0027e-011
86
root  73.4106 40.26 -3.00211 178.983 -80.8239 -178.48
RightUpLeg  -0.690323 -8.76342 -2.08031
RightLeg  11.2816 2.22081 4.06376
RightFoot  -5.37467 0.171498 -3.98351
RightToes  5.82063e-011 0 -3.6325e-017
Spine  2.27898 -0.312401 8.44095
Spine1  12.3564 -0.164634 0.196069
HEad  -20.9484 9.70331 -9.49873
LeftShoulder1  9.13735 -12.5702 -49.6253
LeftArm  -19.0985 17.9988 -26.4928
LeftForeArm  18.2612 -16.9915 -3.17846
LeftHand  -0.244104 0.0205437 5.32207
RightShoulder  7.07725 10.6097 43.7412
RightArm  -5.75995 -9.34641 25.6321
RightForeArm  1.42902 9.81109 7.46862
RightHand  -1.14179 2.57524 -16.7614
LeftUpLeg  1.2051 10.9861 8.01109
LeftLeg  9.90094 9.67722 0.125427
LeftFoot  -5.78768 0.390728 -7.33208
LeftToes  4.36525e-011 -9.98543e-011 1.0027e-011
87
root  73.3145 40.3533 -3.0399 -179.906 -81.3381 -179.047
RightUpLeg  -1.02026 -8.7085 -2.11571
RightLeg  10.9994 1.74404 4.07079
RightFoot  -4.6183 0.195083 -3.85024
RightToes  5.82063e-011 0 -3.6325e-017
Spine  2.84311 -0.495179 8.49768
Spine1  11.2289 -0.242948 -0.133344
HEad  -21.3226 9.35289 -9.16429
LeftShoulder1  9.14544 -12.6827 -49.3251
LeftArm  -18.9161 17.7223 -26.046
LeftForeArm  19.4689 -19.2065 -3.36608
LeftHand  -0.244104 0.0205437 5.32207
RightShoulder  6.97379 10.4298 43.6533
RightArm  -3.08766 -8.02904 25.1421
RightForeArm  -2.43318 12.9883 7.36036
RightHand  -1.12451 2.34665 -16.98
LeftUpLeg  1.20847 10.0603 8.02842
LeftLeg  8.67065 9.76621 -0.489248
LeftFoot  -4.64404 0.462497 -7.42919
LeftToes  4.36525e-011 -9.98543e-011 1.0027e-011
88
root  73.2207 40.443 -3.05556 -179.617 -82.0534 -179.011
RightUpLeg  -1.03107 -8.75111 -2.16784
RightLeg  10.6267 1.29597 4.13509
RightFoot  -3.88974 0.207508 -3.58992
RightToes  5.82063e-011 0 -3.6325e-017
Spine  3.04077 -0.747803 8.8132
Spine1  11.0068 -0.365721 -0.671506
HEad  -21.9137 8.97166 -8.91541
LeftShoulder1  9.09465 -12.7036 -48.9876
LeftArm  -18.7579 16.7514 -25.9517
LeftForeArm  20.6967 -21.1923 -3.56311
LeftHand  -0.244104 0.0205437 5.32207
RightShoulder  7.00679 10.4847 43.6897
RightArm  0.35993 -6.74762 24.7251
RightForeArm  -6.60699 16.6455 6.66692
RightHand  -1.08507 2.11959 -16.8734
LeftUpLeg  1.3555 9.24242 8.12076
LeftLeg  7.48559 9.78661 -1.06712
LeftFoot  -3.54772 0.499748 -7.0232
LeftToes  4.36525e-011 -9.98543e-011 1.0027e-011
89
root  73.1134 40.5162 -3.05567 -179.436 -82.5622 -179.044
RightUpLeg  -0.871633 -8.85145 -2.29234
RightLeg  10.3036 1.12496 4.21447
RightFoot  -3.23671 0.206401 -3.21972
RightToes  5.82063e-011 0 -3.6325e-017
Spine  3.07214 -0.81872 8.85828
Spine1  11.1786 -0.433747 -0.751815
HEad  -22.3492 8.72926 -8.7964
LeftShoulder1  9.05056 -12.6594 -48.8831
LeftArm  -18.2714 15.5692 -26.0983
LeftForeArm  21.5218 -23.0868 -3.82844
LeftHand  -0.244104 0.0205437 5.32207
RightShoulder  7.03919 10.6676 43.3049
RightArm  2.91077 -5.74282 24.6632
RightForeArm  -9.1974 20.0902 5.79359
RightHand  -1.03191 1.81428 -16.7235
LeftUpLeg  1.73077 8.56413 8.17087
LeftLeg  6.3792 10.0887 -1.56421
LeftFoot  -2.68963 0.509448 -6.51558
LeftToes  4.36525e-011 -9.98543e-011 1.0027e-011
90
root  73.006 40.5638 -3.03935 -178.568 -82.9475 -179.827
RightUpLeg  -0.764456 -9.05027 -2.52484
RightLeg  10.2254 1.05236 4.25934
RightFoot  -2.84404 0.201894 -2.97418
RightToes  5.82063e-011 0 -3.6325e-017
Spine  3.16947 -0.734074 8.54997
Spine1  11.1839 -0.423002 -0.476947
HEad  -22.4539 8.55584 -8.6085
LeftShoulder1  9.0524 -12.66 -48.8912
LeftArm  -17.5832 14.7093 -26.3176
LeftForeArm  22.4812 -25.2989 -4.22696
LeftHand  -0.244104 0.0205437 5.32207
RightShoulder  7.02502 10.8236 42.7125
RightArm  3.64665 -5.00954 24.8438
RightForeArm  -10.057 22.9335 5.4817
RightHand  -1.01476 1.49914 -17.1703
LeftUpLeg  2.01457 8.20255 8.0851
LeftLeg  5.70686 10.406 -1.8922
LeftFoot  -2.14033 0.529617 -6.41679
LeftToes  4.36525e-011 -9.98543e-011 1.0027e-011
91
root  72.9099 40.5831 -2.99614 -177.525 -83.5857 179.231
RightUpLeg  -0.699361 -9.35542 -2.81537
RightLeg  10.3039 0.818724 4.3219
RightFoot  -2.82834 0.18304 -2.71403
RightToes  5.82063e-011 0 -3.6325e-017
Spine  3.24607 -0.699475 8.26042
Spine1  11.0797 -0.428072 -0.304116
HEad  -22.4022 8.2766 -8.24684
LeftShoulder1  9.10865 -12.7524 -48.9159
LeftArm  -16.9979 14.1992 -26.4719
LeftForeArm  24.1491 -27.9052 -4.71183
LeftHand  -0.244104 0.0205437 5.32207
RightShoulder  6.97971 10.852 42.3295
RightArm  3.14405 -4.24211 25.0932
RightForeArm  -9.76997 24.9421 5.81362
RightHand  -1.06059 1.50109 -17.9251
LeftUpLeg  1.90704 8.21754 7.93374
LeftLeg  5.70794 10.2466 -1.99085
LeftFoot  -2.00024 0.56012 -6.70654
LeftToes  4.36525e-011 -9.98543e-011 1.0027e-011
92
root  72.81 40.576 -2.91683 -177.578 -84.5278 179.425
RightUpLeg  -0.556733 -9.71471 -3.07843
RightLeg  10.3135 0.462305 4.47465
RightFoot  -3.00647 0.133795 -2.11451
RightToes  5.82063e-011 0 -3.6325e-017
Spine  3.11576 -0.783126 8.32522
Spine1  11.0904 -0.474754 -0.473755
HEad  -22.3317 7.76149 -7.69124
LeftShoulder1  9.17768 -12.8632 -48.9536
LeftArm  -16.5659 13.8306 -26.615
LeftForeArm  26.3677 -30.455 -5.17503
LeftHand  -0.244104 0.0205437 5.32207
RightShoulder  6.92458 10.7841 42.1857
RightArm  2.80728 -3.42876 25.4718
RightForeArm  -8.89143 26.1645 6.06994
RightHand  -1.08913 1.70453 -17.8887
LeftUpLeg  1.5353 8.38935 7.81193
LeftLeg  6.10322 9.64199 -1.89607
LeftFoot  -2.35836 0.563548 -6.9899
LeftToes  4.36525e-011 -9.98543e-011 1.0027e-011
